<svg width="90" height="90" viewBox="0 0 90 90" fill="none" xmlns="http://www.w3.org/2000/svg">
<g clip-path="url(#clip0_3486_52)">
<rect width="90" height="90" transform="matrix(-1 0 0 1 90 0)" fill="#F3F3F3"/>
<path d="M23.5608 50.5641L23.9983 51.9977L25.0596 55.6208L26.4965 56.8078L35.3675 64.117C33.8057 66.6159 34.8053 68.4276 35.9298 70.3642C37.0543 72.3008 39.803 75.1746 48.3617 76.6114C56.9203 78.0483 61.0435 75.0496 66.9783 68.9274C71.7262 64.0296 71.7054 58.557 71.1015 56.433C70.5601 56.3497 69.0899 55.9457 67.5406 54.9961C65.604 53.8091 64.5419 51.0604 63.7298 46.8747C63.0801 43.5262 64.0005 37.6914 64.5419 35.1925C60.2105 29.8835 50.6607 18.553 47.1122 15.7027C42.6767 12.1398 34.8677 12.1418 27.3086 15.7027C21.2613 18.5514 19.9577 25.2607 20.0619 28.2593C19.5621 31.8202 20.0619 32.447 20.5616 33.634C20.9615 34.5836 21.3534 36.1118 21.4994 36.7572C20.1874 38.4436 17.6884 42.2037 18.1882 43.753C18.688 45.3023 21.3533 45.8144 22.6235 45.8768L23.5608 50.5641Z" fill="white"/>
<path d="M41.8985 23.6443C42.8862 24.2895 44.0383 26.9289 44.3423 28.4843V31.1762C44.3423 31.7284 44.79 32.1762 45.3423 32.1762H46.3813C46.6421 32.1762 46.8909 32.0728 47.0865 31.9004C48.6533 30.5196 51.8819 28.5514 53.4487 28.3505C55.5419 28.0822 57.2582 29.3325 57.7365 31.5044C58.2041 33.6278 57.7139 36.9351 57.2487 38.4022L58.739 40.0587C59.8287 41.2699 61.1979 42.1965 62.7274 42.758L63.582 43.0717C63.761 42.2487 64.2154 39.6152 64.6018 35.6649C65.0849 30.727 63.0487 22.4425 61.1131 18.8654C60.2135 17.2029 57.5815 14.5779 53.4487 11.6796C49.3159 8.78125 44.045 7.70024 34.6526 10.6522C27.1386 13.0138 23.0418 17.8622 21.9326 19.9912C24.1332 20.0449 25.6355 18.2227 28.7485 17.2029C31.8615 16.1831 38.4632 14.8924 38.7852 16.6099C39.0428 17.9839 38.3918 21.1911 38.034 22.623C38.9107 22.6945 40.9109 22.999 41.8985 23.6443Z" fill="#B2D1FF"/>
<path d="M24.7369 38.2466C23.7652 36.9382 23.0247 35.0244 22.776 34.231C22.1225 32.5401 23.1027 30.4011 24.7369 29.9807C26.3711 29.5604 28.6137 30.4013 29.3142 33.2502C30.0148 36.0991 29.7812 39.0414 28.6137 39.6953C27.4461 40.3491 25.9516 39.8821 24.7369 38.2466Z" stroke="#0066FF" stroke-width="1.5" stroke-linecap="round" stroke-linejoin="round"/>
<path d="M20.7217 34.7915C21.0327 34.5895 21.8509 34.1762 22.6357 34.1392M28.8874 31.6594L30.2487 31.2439L50.8645 29.1719" stroke="#0066FF" stroke-width="1.5" stroke-linecap="round" stroke-linejoin="round"/>
<path d="M23.3044 53.343C23.3581 52.6598 23.5523 52.1435 23.7324 51.9712C23.9725 52.1059 24.812 52.3805 25.5317 52.3985C26.4313 52.421 26.9261 51.9719 28.1855 51.3414C29.1931 50.8371 30.9594 50.112 31.7165 49.8125V50.3286C30.9669 51.3334 29.3775 53.4463 29.0177 53.8596C28.5679 54.3762 26.4985 55.9512 24.9467 55.4114C23.3948 54.8716 23.2374 54.1969 23.3044 53.343Z" fill="#FED1D0"/>
<path d="M13.4667 72.2684C14.6571 71.2471 24.8716 66.3194 29.83 63.9832H35.0369C34.5764 64.5144 33.9318 66.2993 35.0369 69.1896C36.4183 72.8024 43.7501 76.8402 52.2509 77.159C60.7516 77.4778 64.6832 72.2684 68.8273 65.5768C72.1425 60.2235 71.1295 55.9774 70.2086 54.5234C71.59 55.1263 74.7353 56.4807 76.2654 57.0757C77.7955 57.6708 88.8748 61.0776 94.2232 62.7067L97.1984 83.6397C91.2125 88.563 79.1132 98.4309 78.6032 98.5159C77.9656 98.6222 -4.06653 101.704 0.821384 89.1652C5.7093 76.6266 11.9786 73.5451 13.4667 72.2684Z" fill="#569AFF"/>
<path d="M21.9338 49.6768C21.9161 49.2079 22.1061 48.807 22.2033 48.6651V48.1253L22.6754 48.3502L23.3951 47.8789L31.3117 48.6651L31.6041 49.4307C29.8948 49.5582 26.3863 49.8311 26.0265 49.903C25.5766 49.993 23.9798 51.1625 23.2826 51.0051C22.5854 50.8476 21.9558 50.2629 21.9338 49.6768Z" fill="#FED1D0"/>
<path d="M49.584 30.4481C50.0663 29.7949 51.5074 28.4696 53.4131 28.3934C55.7953 28.298 59.0645 30.6799 57.8502 35.3502C56.6359 40.0205 54.4409 43.9447 50.5645 41.6096" stroke="#0066FF" stroke-width="1.5" stroke-linecap="round" stroke-linejoin="round"/>
<path d="M53.0751 33.4805L52.3164 37.2132" stroke="#0066FF" stroke-width="1.5" stroke-linecap="round" stroke-linejoin="round"/>
<path d="M51.2275 35.125L54.1956 35.4886" stroke="#0066FF" stroke-width="1.5" stroke-linecap="round" stroke-linejoin="round"/>
<path d="M19.5072 33.1079C19.4448 32.2687 19.4042 30.1507 19.7406 28.3931C20.1611 26.1961 20.6278 21.1055 24.8311 16.9956C29.0344 12.8857 38.1882 8.16969 47.0151 9.43067C55.842 10.6917 61.9601 17.8844 63.5947 25.964C65.2293 34.0437 63.3144 42.7305 63.3144 44.6453C63.3145 46.5601 63.4546 54.7799 70.0397 56.648" stroke="#0066FF" stroke-width="1.5" stroke-linecap="round" stroke-linejoin="round"/>
<path d="M22.1219 46.6051C20.9079 47.681 21.391 49.1977 21.911 49.5962L22.5436 48.71L23.244 48.9879L23.6176 48.5216C23.8823 48.4438 24.2887 48.3348 25.4843 48.5216C26.4938 48.6794 28.9284 48.8478 30.5333 48.9432C30.9957 48.9706 31.381 49.3091 31.4587 49.7658C31.6842 51.0916 31.976 53.0042 31.976 53.7991C31.976 55.0134 31.2621 56.8471 30.5148 57.2208C29.7676 57.5944 28.1931 57.4886 27.8195 57.0216C27.7392 56.9212 27.6601 56.8092 27.5848 56.6915C27.2698 56.1995 26.6376 55.9395 26.058 56.0125C25.4565 56.0883 24.8528 56.0147 24.484 55.7239L25.0347 57.2208C24.1006 59.229 24.1299 62.1589 26.4184 63.3265C28.7068 64.4941 34.4513 65.4749 40.8496 63.3265C45.5416 61.7511 49.3885 57.1254 51.0884 54.4707C51.3673 54.0352 51.506 53.5241 51.4876 53.0073C51.3111 48.0342 49.0458 46.8703 47.6683 43.8046C46.6695 41.5818 46.5135 37.1848 46.7989 34.3989C46.8628 33.7746 46.3859 33.2031 45.7582 33.2031H44.3995C44.0768 33.2031 43.7742 33.3573 43.5907 33.6227C41.8532 36.1352 38.905 40.9693 36.7177 42.7333C34.4012 44.6014 33.1747 49.4397 33.237 51.697C32.8167 50.296 31.7332 47.4377 30.7618 47.2136C29.7903 46.9894 24.5971 46.7145 22.1219 46.6051Z" fill="#569AFF"/>
<path opacity="0.5" d="M35.8763 38.0763C36.6719 38.9148 36.3762 40.4872 35.2157 41.5883C34.0553 42.6893 32.2396 42.9286 31.3762 42.1603C30.1889 41.1037 30.447 39.614 31.6074 38.5129C32.7679 37.4118 35.0806 37.2377 35.8763 38.0763Z" fill="#FED1D0"/>
<path d="M34.7363 63.8672L40.8181 64.5027L43.2892 66.4302" stroke="#0066FF" stroke-width="1.5" stroke-linecap="round" stroke-linejoin="round"/>
<path d="M18.8994 41.1876C19.609 40.2148 20.8145 38.2144 21.4687 37.1262C21.1418 36.0991 20.5909 33.931 19.6942 33.2959C18.5733 32.5019 16.7051 32.8777 16.8919 35.6332C17.0414 37.8376 18.3392 40.0676 18.8994 41.1876ZM18.8994 41.1876C18.0124 42.4037 17.3586 44.8789 20.0207 45.8597C22.1503 46.6443 24.3953 46.1866 25.2516 45.8597" stroke="#0066FF" stroke-width="1.5" stroke-linecap="round" stroke-linejoin="round"/>
<path d="M35.3391 64.401C33.8291 65.9249 33.7625 71.089 40.8944 74.5761C50.2108 79.1314 60.653 77.8032 66.631 69.49C72.609 61.1769 72.6557 53.7044 66.631 54.6384C67.0669 54.4367 68.4524 54.1543 70.5073 54.6384C73.076 55.2436 71.4414 55.5271 77.326 57.5353C82.0337 59.1419 93.1122 62.7819 98.0631 64.401L106.073 86.3612" stroke="#0066FF" stroke-width="1.5" stroke-linecap="round" stroke-linejoin="round"/>
<path d="M29.6573 63.957C26.8427 65.6889 20.1746 69.5206 16.0186 70.9922C10.8237 72.8316 4.76242 80.1917 0 89.1754" stroke="#0066FF" stroke-width="1.5" stroke-linecap="round" stroke-linejoin="round"/>
<ellipse cx="26.6849" cy="33.9117" rx="1.23193" ry="2.21875" transform="rotate(-11.6788 26.6849 33.9117)" fill="#0066FF"/>
<path d="M30.1551 66.6713C29.7071 68.834 30.1551 71.9825 33.7342 75.4721C39.7749 81.3617 48.5249 84.3553 60.6198 80.6686C74.5651 76.4179 77.0616 63.6133 76.4651 60.332" stroke="#0066FF" stroke-width="1.5" stroke-linecap="round" stroke-linejoin="round"/>
<path d="M21.3457 34.2109C21.3367 33.7663 20.9333 32.7579 19.3916 32.2812" stroke="#0066FF" stroke-width="1.5" stroke-linecap="round" stroke-linejoin="round"/>
<path d="M23.0068 31.7626C23.6943 31.2837 25.1836 30.5034 27.1812 30.0029C29.1789 29.5024 31.144 29.7944 31.8769 30.0029" stroke="#0066FF" stroke-width="1.5" stroke-linecap="round" stroke-linejoin="round"/>
<path opacity="0.2" d="M40.8815 64.5557L35.6543 64.0596C37.4531 63.6992 41.446 62.5632 43.704 60.9027C45.9621 59.2423 49.8476 55.1195 51.5082 53.2656L53.6236 59.4673C53.8559 60.1483 53.7045 60.9016 53.2271 61.4399L51.2025 63.723C51.0127 63.9371 50.9236 64.2222 50.9579 64.5062L51.4892 68.9135C51.7061 70.7119 49.6115 71.8491 48.2213 70.6877L40.8815 64.5557Z" fill="#0066FF"/>
<path d="M20.9977 46.375C20.9853 46.7864 21.1499 47.8788 21.9069 48.957" stroke="#0066FF" stroke-width="1.5" stroke-linecap="round" stroke-linejoin="round"/>
<path d="M46.9079 41.582C47.4099 43.4921 48.1658 45.3884 48.7601 46.4864C50.7613 50.1832 51.198 51.7975 50.7613 53.6895C50.3247 55.5816 47.05 58.8563 44.7941 60.4936C42.5382 62.131 39.4906 63.6608 35.3062 63.8064C31.1219 63.9519 26.4558 63.7683 25.437 61.5488C24.622 59.7732 25.2439 58.3723 25.6563 57.669L25.437 56.3343L24.6084 56.0144" stroke="#0066FF" stroke-width="1.5" stroke-linecap="round" stroke-linejoin="round"/>
</g>
<defs>
<clipPath id="clip0_3486_52">
<rect width="90" height="90" fill="white" transform="matrix(-1 0 0 1 90 0)"/>
</clipPath>
</defs>
</svg>
